# xmcd
#
# Track frame offsets: 
#        150
#        17907
#        30942
#        42614
#        57324
#        70033
#        83861
#        102419
#        117522
#        130412
#        146849
#        161721
#        181112
#        190508
#        203933
#        220078
#        235110
#        250901
#        267180
#        285685
#        296677
#        310073
#
# Disc length: 4322 seconds
#
# Revision: 3
# Processed by: cddbd v1.5.2PL0 Copyright (c) Steve Scherf et al.
# Submitted via: ExactAudioCopy v0.99pb4
#
DISCID=4810e016
DTITLE=George Strait - 22 More Hits
DYEAR=2007
DGENRE=Country
TTITLE0=How 'Bout Them Cowgirls
TTITLE1=Amarillo by Morning
TTITLE2=The Fireman
TTITLE3=Gone as a Girl Can Get
TTITLE4=When Did You Stop Loving Me
TTITLE5=Marina del Rey
TTITLE6=Desperately
TTITLE7=The Cowboy Rides Away
TTITLE8=Lovebug
TTITLE9=Cowboys Like Us
TTITLE10=She Let Herself Go
TTITLE11=You'll Be There
TTITLE12=Don't Make Me Come Over There and Love You
TTITLE13=What Do You Say to That
TTITLE14=Drinking Champagne
TTITLE15=You're Something Special to Me
TTITLE16=Meanwhile
TTITLE17=Adalida
TTITLE18=If You Can Do Anything Else
TTITLE19=Unwound
TTITLE20=If You're Thinking You Want a Stranger (There's One Coming Ho
TTITLE20=me)
TTITLE21=Overnight Success
EXTD=YEAR: 2007
EXTT0=
EXTT1=
EXTT2=
EXTT3=
EXTT4=
EXTT5=
EXTT6=
EXTT7=
EXTT8=
EXTT9=
EXTT10=
EXTT11=
EXTT12=
EXTT13=
EXTT14=
EXTT15=
EXTT16=
EXTT17=
EXTT18=
EXTT19=
EXTT20=
EXTT21=
PLAYORDER=
